<svg width="512" height="512" xmlns="http://www.w3.org/2000/svg">

 <g>
  <title>background</title>
  <rect fill="none" id="canvas_background" height="602" width="802" y="-1" x="-1"/>
 </g>
 <g>
  <title>Layer 1</title>
  <rect id="svg_1" fill="#FF4B55" height="512" width="170.67" x="341.33"/>
  <rect id="svg_2" fill="#41479B" height="512" width="170.67" x="170.67"/>
  <rect id="svg_3" fill="#FF4B55" height="512" width="170.67"/>
  <g id="svg_4">
   <path id="svg_5" fill="#F9CF02" d="m85.689,208.389c-13.341,0 -24.775,-8.038 -29.814,-19.518c-0.003,0.175 -0.052,0.337 -0.052,0.513c0,16.494 13.371,29.865 29.865,29.865s29.865,-13.371 29.865,-29.865c0,-0.175 -0.049,-0.337 -0.052,-0.512c-5.037,11.48 -16.472,19.517 -29.812,19.517z"/>
   <circle id="svg_6" fill="#F9CF02" r="21.72" cy="181.24" cx="85.69"/>
   <path id="svg_7" fill="#F9CF02" d="m72.114,140.513c0,7.497 6.078,13.575 13.575,13.575s13.575,-6.078 13.575,-13.575c0,-5.43 -3.394,-6.109 -3.394,-8.145c0,-2.036 2.036,-4.751 -2.036,-8.145c2.036,3.394 -1.358,4.073 -1.358,7.466c0,3.394 1.358,3.394 1.358,6.109c0,1.499 -1.216,2.715 -2.715,2.715c-1.499,0 -2.715,-1.216 -2.715,-2.715c0,-2.715 2.715,-5.43 2.715,-9.503s-0.679,-5.43 -2.715,-8.824c-2.036,-3.394 -5.43,-6.109 -2.715,-8.824c-4.073,1.358 -2.036,6.788 -2.036,10.181c0,3.394 -2.715,5.43 -2.715,9.503c0,4.073 2.036,4.751 2.036,7.466c0,1.499 -1.216,2.715 -2.715,2.715c-1.499,0 -2.715,-1.216 -2.715,-2.715c0,-2.715 1.358,-2.715 1.358,-6.109s-3.394,-4.073 -1.358,-7.466c-4.073,3.394 -2.036,6.109 -2.036,8.145c0,2.038 -3.394,2.716 -3.394,8.146z"/>
   <path id="svg_8" fill="#F9CF02" d="m25.959,226.921l0,125.838c0,1.238 1.004,2.242 2.242,2.242l22.667,0c1.238,0 2.242,-1.004 2.242,-2.242l0,-125.838c0,-1.238 -1.004,-2.242 -2.242,-2.242l-22.668,0c-1.238,0 -2.241,1.004 -2.241,2.242z"/>
   <path id="svg_9" fill="#F9CF02" d="m118.269,226.921l0,125.838c0,1.238 1.004,2.242 2.242,2.242l22.667,0c1.238,0 2.242,-1.004 2.242,-2.242l0,-125.838c0,-1.238 -1.004,-2.242 -2.242,-2.242l-22.667,0c-1.238,0 -2.242,1.004 -2.242,2.242z"/>
   <path id="svg_10" fill="#F9CF02" d="m58.539,248.641l0,6.377c0,1.238 1.004,2.242 2.242,2.242l49.817,0c1.238,0 2.242,-1.004 2.242,-2.242l0,-6.377c0,-1.238 -1.004,-2.242 -2.242,-2.242l-49.818,0c-1.238,0 -2.241,1.004 -2.241,2.242z"/>
   <path id="svg_11" fill="#F9CF02" d="m58.539,324.661l0,6.377c0,1.238 1.004,2.242 2.242,2.242l49.817,0c1.238,0 2.242,-1.004 2.242,-2.242l0,-6.377c0,-1.238 -1.004,-2.242 -2.242,-2.242l-49.818,0c-1.238,0.001 -2.241,1.004 -2.241,2.242z"/>
   <path id="svg_12" fill="#F9CF02" d="m62.585,224.679l46.208,0c1.137,0 1.551,1.497 0.577,2.082l-21.951,13.17c-1.065,0.639 -2.395,0.639 -3.46,0l-21.951,-13.17c-0.974,-0.585 -0.559,-2.082 0.577,-2.082z"/>
   <path id="svg_13" fill="#F9CF02" d="m62.585,338.71l46.208,0c1.137,0 1.551,1.497 0.577,2.082l-21.951,13.17c-1.065,0.639 -2.395,0.639 -3.46,0l-21.951,-13.17c-0.974,-0.585 -0.559,-2.082 0.577,-2.082z"/>
   <path id="svg_14" fill="#F9CF02" d="m88.341,262.901c-0.856,-0.082 -1.685,-0.259 -2.562,-0.259c-14.931,0 -27.077,12.147 -27.077,27.077c0,8.862 4.329,16.662 10.943,21.583c0.761,0.567 1.767,-0.252 1.397,-1.126c-0.794,-1.879 -1.239,-3.938 -1.239,-6.106c0,-8.825 7.194,-16.002 16.026,-15.975c4.643,0.014 9.094,-2.279 11.149,-6.443c4.251,-8.611 -0.937,-17.171 -8.637,-18.751zm-2.562,17.883c-2.991,0 -5.416,-2.424 -5.416,-5.416c0,-2.991 2.425,-5.415 5.416,-5.415s5.415,2.424 5.415,5.415c0,2.992 -2.425,5.416 -5.415,5.416z"/>
   <path id="svg_15" fill="#F9CF02" d="m101.912,268.136c-0.761,-0.567 -1.767,0.252 -1.397,1.126c0.794,1.879 1.239,3.938 1.239,6.106c0,8.826 -7.195,16.003 -16.027,15.976c-4.643,-0.015 -9.095,2.279 -11.149,6.443c-4.249,8.612 0.938,17.172 8.638,18.751c0.856,0.082 1.685,0.259 2.562,0.259c14.93,0 27.077,-12.147 27.077,-27.078c0.001,-8.862 -4.329,-16.661 -10.943,-21.583zm-16.133,41.35c-2.991,0 -5.416,-2.424 -5.416,-5.416c0,-2.991 2.425,-5.415 5.416,-5.415s5.415,2.424 5.415,5.415s-2.425,5.416 -5.415,5.416z"/>
  </g>
  <g id="svg_16"/>
  <g id="svg_17"/>
  <g id="svg_18"/>
  <g id="svg_19"/>
  <g id="svg_20"/>
  <g id="svg_21"/>
  <g id="svg_22"/>
  <g id="svg_23"/>
  <g id="svg_24"/>
  <g id="svg_25"/>
  <g id="svg_26"/>
  <g id="svg_27"/>
  <g id="svg_28"/>
  <g id="svg_29"/>
  <g id="svg_30"/>
 </g>
</svg>